<?xml version="1.0" standalone="no"?>
<!DOCTYPE svg PUBLIC "-//W3C//DTD SVG 20010904//EN"
 "http://www.w3.org/TR/2001/REC-SVG-20010904/DTD/svg10.dtd">
<svg version="1.0" xmlns="http://www.w3.org/2000/svg"
 width="9000.000000pt" height="7944.000000pt" viewBox="0 0 9000.000000 7944.000000"
 preserveAspectRatio="xMidYMid meet">

<g transform="translate(0.000000,7944.000000) scale(0.100000,-0.100000)"
fill="#000000" stroke="none">
<path d="M72767 79348 l-57 -73 47 -8 c46 -8 211 -41 263 -53 16 -4 7 5 -24
24 -66 41 -105 78 -112 110 -6 26 -41 72 -54 72 -3 0 -31 -33 -63 -72z"/>
<path d="M46780 75263 c-1204 -166 -1918 -289 -2860 -489 -4074 -868 -7960
-2460 -11505 -4712 -3085 -1960 -5884 -4427 -8236 -7257 -2133 -2568 -3874
-5394 -5219 -8469 -66 -152 -120 -280 -120 -285 0 -6 59 -97 132 -203 549
-803 1140 -1769 1605 -2623 1342 -2462 2155 -4806 2393 -6897 205 -1807 144
-3508 -186 -5165 -315 -1584 -894 -3125 -1647 -4378 -108 -181 -310 -487 -401
-608 l-66 -89 182 -264 c100 -145 185 -264 188 -264 3 0 81 193 174 428 481
1216 842 2043 1295 2967 798 1627 1686 3048 2572 4116 l88 106 25 124 c39 195
49 309 49 529 -1 546 -150 1090 -438 1595 -305 537 -724 980 -1284 1358 -80
53 -142 97 -139 97 20 0 272 -79 383 -120 534 -197 964 -465 1349 -840 389
-380 643 -773 837 -1298 156 -422 259 -1008 259 -1479 l0 -95 123 -156 c319
-406 817 -1075 1132 -1525 56 -80 71 -95 77 -80 7 18 39 273 58 463 6 58 13
179 16 270 14 411 211 2116 395 3420 491 3475 1188 6662 2105 9618 26 83 45
154 43 155 -2 2 -107 64 -234 137 -1792 1040 -2997 2079 -3630 3128 -48 79
-85 145 -83 147 2 2 71 -40 153 -91 1067 -672 2342 -1344 3540 -1866 258 -113
656 -278 668 -278 7 0 45 93 86 208 394 1110 922 2399 1416 3457 1564 3347
3565 6320 5944 8829 124 131 254 269 288 306 l62 67 -112 53 c-464 216 -1190
628 -1676 950 -294 195 -731 509 -731 525 0 6 -13 12 350 -150 811 -361 1603
-676 2337 -931 l212 -73 113 107 c1491 1414 3165 2738 4853 3839 296 192 672
431 727 460 l36 19 -59 33 c-191 105 -398 261 -540 407 -242 251 -353 503
-336 767 11 166 68 326 173 484 73 110 300 340 438 443 532 397 1406 754 2481
1014 340 83 354 88 145 59z"/>
<path d="M55575 75273 c482 -108 1063 -278 1481 -434 1081 -402 1711 -873
1871 -1396 22 -75 26 -107 27 -218 1 -149 -16 -220 -85 -359 -139 -280 -458
-571 -875 -801 l-112 -61 162 -99 c1579 -967 3033 -2040 4346 -3209 481 -429
1060 -985 1480 -1420 162 -168 300 -306 306 -306 36 0 681 192 994 297 702
234 1149 438 1615 736 774 496 1227 1047 1357 1650 19 86 22 134 22 312 1 180
-2 226 -22 324 -87 432 -342 877 -718 1255 l-119 119 -380 188 c-3164 1558
-6581 2655 -10110 3243 -516 86 -1385 212 -1240 179z"/>
<path d="M45815 71481 c-11 -11 -69 -40 -130 -64 -1688 -692 -3517 -2001
-5151 -3687 -300 -309 -488 -510 -482 -515 6 -7 411 -116 760 -205 2555 -651
5440 -1077 8423 -1245 395 -22 889 -45 976 -45 l77 0 6 63 c13 129 47 705 101
1672 30 550 65 1135 77 1300 19 266 22 399 25 1171 l4 871 -218 7 c-1292 41
-2623 213 -3671 476 -253 63 -604 163 -721 204 -54 20 -53 20 -76 -3z"/>
<path d="M56430 71429 c-864 -267 -2077 -475 -3305 -568 -475 -37 -1000 -61
-1315 -61 -102 0 -222 -3 -267 -7 l-83 -6 0 -804 0 -804 125 -1749 c69 -962
125 -1752 125 -1756 0 -9 1651 3 2105 16 2760 78 5241 301 7499 676 538 89
1361 242 1410 262 17 7 6 23 -85 128 -1368 1579 -2808 2846 -4274 3761 -428
267 -931 541 -1359 740 -197 92 -457 203 -470 202 -6 -1 -54 -14 -106 -30z"/>
<path d="M70315 69873 c110 -259 159 -533 136 -771 -63 -644 -512 -1240 -1366
-1809 -834 -555 -2072 -1068 -3572 -1479 -114 -32 -210 -58 -211 -60 -2 -1 79
-101 180 -221 2303 -2729 4184 -5925 5633 -9568 192 -483 413 -1071 561 -1495
37 -107 71 -199 74 -203 8 -9 352 160 635 310 1076 572 1945 1162 2695 1827
192 171 557 533 725 721 940 1048 1507 2178 1704 3395 91 559 104 1095 40
1665 -76 682 -263 1366 -537 1960 -114 248 -119 255 -365 513 -262 275 -927
937 -1202 1197 -1370 1293 -2773 2429 -4355 3527 -168 116 -740 501 -778 522
-10 6 -9 -3 3 -31z"/>
<path d="M39443 66548 c-1908 -2225 -3641 -5012 -5056 -8128 -517 -1140 -998
-2347 -1436 -3602 -164 -472 -404 -1206 -398 -1221 8 -22 857 -315 1537 -532
4399 -1399 9569 -2222 14920 -2375 201 -5 411 -12 467 -13 l101 -4 6 121 c4
67 15 373 26 681 126 3538 312 7688 530 11845 33 624 61 1155 62 1180 l2 45
-184 12 c-537 36 -1314 106 -1880 169 -3244 360 -6139 1031 -8541 1979 -12 4
-53 -37 -156 -157z"/>
<path d="M63570 65334 c-1852 -381 -4066 -663 -6305 -804 -1414 -88 -2867
-124 -4202 -102 -412 7 -873 17 -1027 23 -153 5 -279 9 -281 7 -1 -2 15 -316
36 -698 291 -5257 474 -8996 589 -12050 16 -437 32 -850 36 -917 l6 -123 37 5
c20 2 160 7 311 10 446 9 1189 39 1855 76 5072 275 10049 1090 13930 2280 259
79 1242 405 1264 419 14 8 -47 200 -249 785 -1323 3838 -3033 7259 -5094
10195 -210 300 -682 942 -689 939 -1 -1 -99 -21 -217 -45z"/>
<path d="M80371 59767 c-530 -2213 -1797 -4133 -3776 -5722 -1022 -821 -2321
-1604 -3735 -2250 -140 -64 -259 -120 -263 -125 -5 -4 30 -144 77 -311 915
-3263 1578 -6931 1971 -10899 263 -2670 343 -5515 230 -8255 -57 -1371 -162
-2752 -316 -4158 -7 -59 -10 -109 -7 -113 12 -11 906 329 1433 547 1837 757
3336 1536 4720 2454 1086 721 2005 1469 2820 2296 1220 1239 2105 2549 2732
4048 77 185 82 213 112 636 116 1624 115 3150 -5 4825 -410 5774 -2208 11297
-5260 16167 -229 364 -673 1042 -684 1043 -3 0 -25 -82 -49 -183z"/>
<path d="M14292 55413 c-903 -1566 -1507 -2948 -1912 -4373 -316 -1114 -496
-2198 -576 -3465 -21 -342 -30 -1350 -15 -1745 48 -1263 205 -2620 467 -4038
l37 -201 86 -37 c372 -158 1036 -479 1416 -685 254 -137 653 -366 892 -511
117 -72 216 -129 220 -129 4 0 9 13 11 28 9 93 49 316 78 435 71 290 162 536
296 800 309 610 762 1060 1353 1344 131 63 390 164 419 164 11 0 1 -19 -33
-62 -173 -223 -317 -514 -411 -833 -235 -805 -188 -1914 132 -3112 l41 -153
91 -77 c785 -670 1470 -1391 2020 -2125 49 -65 92 -118 96 -118 9 0 165 338
283 615 717 1684 1191 3440 1336 4945 38 389 46 561 46 1000 0 758 -61 1473
-191 2255 -502 3012 -2056 5981 -4608 8805 -314 347 -572 617 -992 1038 -244
243 -447 442 -453 442 -5 0 -63 -93 -129 -207z"/>
<path d="M32061 52028 c-1151 -4043 -1801 -8214 -1951 -12518 -41 -1175 -36
-3671 9 -4372 l8 -128 201 -402 c1213 -2438 1938 -4637 2197 -6668 99 -784
124 -1477 85 -2425 -52 -1261 -208 -2430 -482 -3620 l-41 -179 18 -71 c32
-126 261 -922 359 -1245 805 -2670 1786 -5221 2937 -7635 196 -412 557 -1135
567 -1135 4 0 128 -11 275 -25 1724 -159 3325 -531 5237 -1215 691 -247 1172
-433 2871 -1109 1301 -517 1579 -623 1944 -747 987 -335 1997 -561 3040 -679
234 -26 653 -61 659 -54 2 2 -12 252 -30 554 -214 3528 -412 8155 -524 12280
-12 429 -24 790 -26 802 -5 26 10 24 -384 58 -2082 182 -4138 496 -5900 901
-3744 861 -6700 2191 -9035 4065 -221 177 -585 485 -585 494 0 6 16 -1 235
-100 402 -182 819 -353 1077 -440 l96 -33 40 146 c184 667 307 1751 368 3224
l7 168 -834 2 -833 3 709 507 c391 279 718 513 729 521 18 13 17 15 -10 58
-15 24 -42 77 -60 117 -17 40 -34 75 -36 77 -2 2 -39 -7 -82 -20 -212 -66
-440 -72 -597 -18 -296 102 -489 387 -554 818 -8 55 -15 119 -15 143 0 37 -3
43 -17 38 -45 -13 -156 -26 -231 -26 -288 0 -555 151 -729 412 -77 116 -125
226 -161 368 -23 93 -26 125 -26 270 0 121 5 183 17 233 9 38 17 70 17 73 0 2
-51 4 -113 4 -240 0 -438 88 -627 279 -185 186 -319 451 -364 720 -20 119 -21
322 -1 434 39 224 152 437 316 593 142 135 293 223 522 307 16 6 10 16 -41 72
-342 374 -395 819 -142 1203 292 443 897 632 1192 372 l45 -39 -33 100 c-102
306 -103 606 -5 822 108 240 323 410 616 489 65 18 109 22 230 23 150 0 151 0
215 -32 36 -17 65 -31 66 -30 1 1 -3 36 -8 77 -12 92 -4 267 17 378 74 388
333 751 715 1002 459 301 1024 382 1466 209 143 -56 269 -137 388 -251 126
-119 209 -234 292 -403 75 -153 125 -300 159 -469 26 -128 55 -351 55 -422 0
-22 2 -43 5 -45 2 -3 37 0 77 7 101 18 301 17 388 -1 240 -51 429 -192 564
-423 150 -254 203 -652 122 -895 l-23 -69 31 6 c282 59 522 41 724 -54 182
-86 311 -214 407 -405 60 -119 89 -216 106 -359 34 -278 -51 -614 -221 -868
-22 -33 -40 -61 -40 -63 0 -1 36 -5 80 -9 348 -29 591 -317 652 -774 l13 -94
348 246 c192 135 351 246 355 246 4 0 32 -26 64 -57 l58 -57 0 3622 0 3622
3670 0 3670 0 0 -9250 0 -9250 351 0 352 0 -7 283 c-34 1464 -63 3972 -76
6552 -27 5299 55 11310 229 16780 10 319 18 581 16 583 -1 1 -177 16 -391 32
-6108 472 -12210 1891 -16692 3884 -156 69 -285 126 -286 126 -1 0 -30 -100
-65 -222z"/>
<path d="M70070 50720 c-2852 -954 -6401 -1691 -10870 -2260 -1893 -240 -4055
-370 -6188 -370 l-513 0 5 -92 c3 -51 8 -176 11 -278 3 -102 14 -484 25 -850
212 -7226 245 -14973 94 -22527 l-7 -333 417 0 416 0 0 6875 0 6875 2520 0
2520 0 2 -3789 3 -3790 1413 1330 1413 1330 30 -23 c94 -73 5638 -4764 5638
-4770 1 -5 -476 -8 -1059 -8 l-1060 0 0 -1350 0 -1350 23 5 c12 3 276 57 587
119 1749 354 2908 611 4090 907 708 177 1723 450 1744 470 5 5 20 73 33 151
598 3710 873 7324 850 11178 -7 1049 -19 1490 -68 2425 -170 3267 -646 6489
-1410 9550 -103 412 -180 707 -188 720 -4 6 -191 -52 -471 -145z"/>
<path d="M41960 38318 l1 -3563 2875 -2332 2875 -2333 -1415 0 -1416 0 0
-2915 0 -2915 23 -4 c48 -10 1492 -117 2027 -151 373 -23 977 -55 1042 -55
l28 0 0 8915 0 8915 -3020 0 -3020 0 0 -3562z m1878 2230 l-3 -503 -502 -3
-503 -2 0 505 0 505 505 0 505 0 -2 -502z m1622 -3 l0 -505 -500 0 -500 0 0
505 0 505 500 0 500 0 0 -505z m1580 0 l0 -505 -500 0 -500 0 0 505 0 505 500
0 500 0 0 -505z"/>
<path d="M4630 41202 c0 -40 140 -728 225 -1102 703 -3118 2001 -5872 3761
-7980 905 -1085 1939 -2008 2970 -2652 1293 -807 3393 -1531 5949 -2052 457
-93 1253 -236 1314 -236 l24 0 -6 168 c-49 1286 -716 2440 -1950 3369 -186
139 -473 333 -662 445 -699 417 -1551 776 -2278 963 -92 23 -170 45 -173 48
-8 8 96 88 236 182 967 646 2175 655 3415 25 1041 -529 1993 -1481 2480 -2482
l62 -127 6 132 c20 437 155 1054 373 1705 41 122 74 227 74 234 0 17 -154 283
-288 498 -515 827 -1152 1654 -1926 2500 -203 223 -827 847 -1056 1056 -1022
937 -2102 1729 -3260 2392 -1559 893 -3423 1627 -5567 2193 -1140 300 -2469
567 -3512 704 -221 28 -211 28 -211 17z"/>
<path d="M25728 37175 c-1733 -2111 -3084 -5164 -3882 -8775 -249 -1129 -440
-2320 -532 -3320 -44 -481 6 -1329 132 -2225 345 -2456 1187 -4908 2429 -7075
581 -1014 1235 -1953 1969 -2829 94 -112 176 -210 182 -217 9 -11 21 -8 67 17
31 17 59 34 62 39 3 5 -57 121 -133 257 -765 1363 -1329 2602 -1727 3798 -699
2098 -821 3909 -354 5260 362 1049 1088 1778 2039 2049 191 54 510 114 510 95
0 -3 -17 -19 -37 -35 -70 -53 -245 -228 -328 -329 -514 -626 -785 -1534 -785
-2635 0 -1400 462 -2847 1187 -3721 89 -107 327 -349 344 -349 9 0 291 422
511 765 1603 2502 2405 4434 2662 6415 132 1014 134 2136 5 3570 -65 728 -168
1334 -350 2054 -371 1468 -1016 3025 -1854 4476 -493 854 -1066 1679 -1600
2300 -111 130 -371 414 -423 463 l-30 29 -64 -77z"/>
<path d="M54130 30590 l0 -6540 38 0 c213 0 1532 69 2102 110 535 39 1475 120
1568 135 l32 6 0 1744 0 1745 -917 2 -918 3 917 875 917 875 1 3793 0 3792
-1870 0 -1870 0 0 -6540z m1620 5290 l0 -500 -520 0 -520 0 0 500 0 500 520 0
520 0 0 -500z m1590 0 l0 -500 -505 0 -505 0 0 500 0 500 505 0 505 0 0 -500z
m-1590 -1585 l0 -505 -520 0 -520 0 0 505 0 505 520 0 520 0 0 -505z m1588 3
l-3 -503 -502 -3 -503 -2 0 505 0 505 505 0 505 0 -2 -502z"/>
<path d="M38359 32572 l-2765 -2017 638 -3 638 -2 0 -2419 0 -2418 283 -77
c1890 -510 4051 -923 6312 -1205 317 -40 753 -91 774 -91 8 0 11 911 11 3185
l0 3185 832 0 833 0 -25 24 c-14 13 -1073 871 -2355 1906 -1281 1036 -2348
1898 -2370 1916 l-40 33 -2766 -2017z m479 -2524 l-3 -503 -502 -3 -503 -2 0
505 0 505 505 0 505 0 -2 -502z m1372 -3 l0 -505 -500 0 -500 0 0 505 0 505
500 0 500 0 0 -505z m-1370 -1375 l0 -500 -505 0 -505 0 0 500 0 500 505 0
505 0 0 -500z m1370 0 l0 -500 -500 0 -500 0 0 500 0 500 500 0 500 0 0 -500z"/>
<path d="M59509 30218 c-1025 -980 -1865 -1785 -1867 -1790 -2 -4 190 -8 427
-8 l431 0 0 -2020 0 -2020 43 5 c23 3 204 21 402 40 1242 120 2868 340 3660
495 138 27 475 88 750 135 532 91 874 153 887 161 4 3 8 781 8 1730 l0 1724
516 2 517 3 -1939 1650 c-1066 908 -1945 1655 -1954 1662 -14 10 -282 -242
-1881 -1769z m661 -2273 l0 -525 -525 0 -525 0 0 525 0 525 525 0 525 0 0
-525z"/>
<path d="M84465 29244 c-1333 -881 -3545 -2098 -5505 -3028 -1592 -756 -3283
-1471 -4817 -2036 -79 -29 -143 -56 -143 -60 0 -4 -32 -180 -70 -391 -752
-4105 -1968 -8117 -3559 -11747 -61 -139 -111 -257 -111 -263 0 -5 256 -9 660
-9 l660 0 198 142 c2671 1918 5137 4287 7197 6913 2205 2812 3985 5977 5228
9300 177 473 460 1281 455 1297 -2 4 -88 -49 -193 -118z"/>
<path d="M6756 25719 c-202 -4 -370 -10 -372 -12 -5 -5 99 -332 176 -555 725
-2081 1887 -4071 3319 -5687 334 -376 847 -899 1191 -1211 1998 -1815 4326
-2998 6950 -3533 792 -161 1554 -254 2485 -303 302 -15 1231 -15 1555 1 437
21 1157 76 1172 90 4 3 -13 35 -38 71 -301 427 -647 986 -939 1516 -143 259
-166 293 -323 484 -122 148 -502 527 -658 658 -499 416 -1022 723 -1600 940
-651 244 -1385 358 -2087 324 -219 -11 -353 -22 -459 -37 -21 -3 -38 -1 -38 4
0 14 132 175 253 309 413 456 944 784 1503 927 280 72 501 98 824 98 319 0
558 -26 904 -99 65 -14 120 -23 123 -21 2 3 -17 72 -42 153 -146 467 -323
1147 -428 1639 -92 431 -192 1012 -223 1301 l-6 62 -127 80 c-2623 1666 -6089
2603 -10296 2782 -704 30 -1919 38 -2819 19z"/>
<path d="M70509 22996 c-9 -9 -721 -197 -1234 -326 -2692 -676 -5199 -1083
-7745 -1255 -564 -38 -2039 -109 -2895 -140 -1323 -47 -2020 -59 -3445 -59
-1174 0 -1688 6 -2441 30 l-205 7 -12 -589 c-76 -3605 -277 -8193 -547 -12474
-13 -211 -22 -386 -20 -389 3 -2 107 3 233 13 1458 111 2945 417 4497 926 608
200 1064 370 2052 766 768 308 969 383 1378 519 1671 556 3844 1061 5870 1366
116 17 211 32 211 33 23 24 604 1182 798 1591 1165 2452 2140 5033 2945 7795
258 886 602 2190 577 2190 -7 0 -15 -2 -17 -4z"/>
<path d="M30039 16765 c-265 -423 -659 -971 -1016 -1415 -285 -355 -537 -644
-1002 -1150 l-105 -114 46 -40 c330 -296 512 -457 658 -582 703 -603 1482
-1211 2321 -1811 l266 -190 64 8 c35 4 190 17 344 29 348 27 461 41 457 59 -1
7 -81 200 -176 429 -638 1535 -1319 3350 -1783 4757 l-30 90 -44 -70z"/>
<path d="M68895 8314 c-49 -11 -171 -18 -400 -24 -181 -5 -366 -14 -410 -20
-44 -5 -165 -14 -270 -20 -109 -5 -215 -16 -248 -25 -32 -8 -99 -15 -150 -15
-95 -1 -208 -12 -287 -30 -25 -5 -117 -19 -205 -30 -88 -12 -311 -45 -495 -75
-184 -29 -374 -58 -421 -64 -47 -6 -133 -27 -190 -46 -57 -20 -131 -38 -164
-41 -33 -3 -148 -34 -255 -69 -107 -34 -223 -68 -258 -74 -90 -17 -550 -149
-807 -232 -678 -219 -1303 -468 -2116 -842 -221 -102 -282 -127 -307 -127 -10
0 -27 -9 -37 -20 -10 -11 -29 -20 -43 -20 -24 0 -115 -41 -142 -65 -8 -7 -28
-15 -45 -18 -16 -2 -77 -24 -135 -47 -277 -110 -426 -160 -479 -160 -17 0 -44
-6 -59 -13 -46 -23 -285 -99 -372 -118 -171 -37 -1513 -486 -1559 -521 -14
-11 -40 -18 -65 -18 -24 0 -53 -8 -71 -20 -16 -11 -40 -20 -52 -20 -32 0 -53
-10 -53 -26 0 -9 -11 -14 -28 -14 -15 0 -45 -9 -67 -20 -26 -13 -59 -20 -99
-20 -40 0 -65 -5 -77 -16 -10 -9 -37 -18 -61 -21 -23 -4 -56 -15 -73 -25 -16
-10 -42 -18 -57 -18 -15 0 -42 -9 -60 -19 -18 -11 -61 -24 -95 -30 -34 -5 -75
-17 -92 -25 -16 -9 -39 -16 -51 -16 -11 0 -38 -9 -60 -20 -22 -11 -49 -20 -60
-20 -11 0 -38 -9 -60 -20 -22 -11 -49 -20 -60 -20 -11 0 -38 -9 -60 -20 -22
-11 -50 -20 -62 -20 -46 -1 -225 -49 -328 -89 -79 -30 -119 -41 -162 -41 -40
0 -68 -6 -90 -20 -18 -11 -48 -20 -66 -20 -18 0 -46 -7 -63 -15 -16 -9 -59
-20 -97 -24 -37 -5 -87 -16 -111 -25 -24 -9 -55 -16 -70 -16 -14 0 -46 -9 -70
-20 -24 -11 -79 -24 -122 -29 -44 -5 -90 -16 -104 -25 -15 -10 -46 -16 -85
-16 -33 0 -77 -7 -98 -16 -20 -8 -66 -18 -100 -21 -35 -3 -80 -14 -100 -25
-20 -10 -57 -18 -82 -18 -25 0 -74 -9 -110 -20 -36 -11 -85 -20 -110 -20 -26
0 -63 -9 -85 -20 -31 -16 -59 -20 -137 -20 -77 0 -104 -4 -130 -19 -24 -14
-63 -21 -140 -26 -75 -5 -119 -13 -145 -26 -27 -14 -59 -19 -118 -19 -47 0
-98 -7 -125 -16 -25 -9 -97 -19 -161 -23 -84 -5 -124 -12 -142 -24 -22 -14
-52 -17 -175 -17 -112 0 -161 -4 -198 -17 -34 -11 -100 -18 -219 -22 -139 -5
-174 -9 -195 -23 -21 -16 -50 -18 -228 -18 -171 0 -211 -3 -260 -19 -47 -15
-99 -20 -307 -24 -219 -5 -258 -8 -312 -26 -61 -21 -76 -21 -950 -21 -881 0
-1516 10 -1958 30 -2707 123 -5149 616 -7900 1595 -644 229 -1217 448 -2390
912 -1700 673 -2294 892 -2675 988 -410 103 -847 164 -1400 195 -237 14 -943
14 -1215 0 -1105 -55 -2224 -205 -3540 -477 -176 -36 -323 -69 -327 -72 -8 -7
92 -72 525 -343 1505 -943 3170 -1827 4812 -2555 4377 -1941 9064 -3045 13850
-3263 1063 -48 2313 -52 3350 -10 7085 289 13822 2467 19708 6373 207 138 374
254 370 257 -11 9 -233 58 -318 70 -38 5 -103 10 -142 10 -59 0 -77 4 -93 20
-16 16 -43 22 -137 30 -65 6 -125 13 -133 15 -8 3 -75 9 -149 14 -110 8 -137
13 -155 29 -19 18 -41 20 -196 25 -114 3 -195 11 -233 21 -32 9 -95 16 -140
16 -46 0 -137 7 -202 15 -66 9 -201 20 -300 25 -99 5 -223 17 -275 25 -70 11
-183 15 -425 15 -274 0 -339 3 -385 16 -81 24 -614 30 -715 8z"/>
</g>
</svg>
